<svg version="1.2" baseProfile="tiny-ps" xmlns="http://www.w3.org/2000/svg" viewBox="0 0 196 293" width="196" height="293">
	<title>test</title>
	<style>
		tspan { white-space:pre }
		.shp0 { opacity: 0.251;fill: #bebebe } 
		.shp1 { opacity: 0.502;fill: #bebebe } 
		.shp2 { opacity: 0.302;fill: #bebebe } 
		.shp3 { opacity: 0.4;fill: #bebebe } 
	</style>
	<g id="Banner">
		<path id="Shape 1" class="shp0" d="M80.47 49.9C85.05 37.8 89.93 26.01 94.75 14.16C96.14 10.29 98.1 5.78 98.89 2.09C97.03 0.95 94.54 0.44 91.98 0C91.71 0.11 91.46 0.25 91.29 0.46C84.57 16.89 76.25 31.72 69.87 48.5C72.13 50.1 76.99 50.29 80.47 49.9ZM60.43 22.28C62.49 23.63 66.04 24.38 69.18 23.9C74.62 22.32 78.2 17.72 76.55 9.75C74.7 6.05 71.5 3.7 66.19 3.48C66.05 3.49 65.91 3.51 65.96 3.71C63.29 4.19 61.7 5.77 59.97 7.19C59.15 10.71 57.25 13.12 57.9 18.1C58.6 19.63 59.39 21.08 60.43 22.28ZM68.49 13.23C67.96 14.4 65.96 15.5 64.57 14.39C64.46 12.18 68.5 9.94 68.49 13.23ZM101.66 50.59C107.32 49.49 110 45.38 109.49 38.06C108.03 34.12 106.22 30.52 102.35 29.01C101.38 28.52 99.54 28.9 98.2 28.78C98.06 28.79 97.93 28.81 97.97 29.01C95.17 30.13 93.73 32.63 91.52 34.35C86.41 42.35 92.28 51 101.66 50.59ZM97.51 39.68C98.17 39.26 99.88 38.94 100.74 39.45C100.84 40.25 100.64 40.75 100.51 41.31C99.17 41.84 97.45 41.28 97.51 39.68ZM96.82 3.71C90.9 18.48 84.53 32.79 78.39 47.34C76.61 47.13 74.59 47.15 72.87 46.88C78.26 30.96 86.63 18.05 91.98 2.09C93.81 2.41 95.17 3.21 96.82 3.71ZM65.96 6.5C71.87 5.66 75.62 10.19 74.02 16.94C72.75 19.3 70.57 20.74 67.8 21.58C56 23.25 58.24 7.29 65.96 6.5ZM70.33 13.23C70.41 6.72 61.82 10.19 63.42 15.08C65.13 17.86 70.11 16.48 70.33 13.23ZM99.12 31.79C99.77 31.08 100.71 32.04 101.66 31.79C104.08 33.3 105.5 35.81 106.49 38.76C106.68 41.49 106.11 43.48 105.34 45.25C102.15 49.38 93.89 47.25 91.98 42.93C90.55 39.69 92.36 35.95 94.29 33.65C96.52 33.66 97.2 32.1 99.12 31.79ZM95.9 38.99C95.08 46.22 106.27 43.73 102.35 37.6C100.42 35.97 96.78 36.95 95.9 38.99Z" />
		<path id="Shape 2" class="shp1" d="M150.52 120.75C156.25 124.36 160.86 129.09 165.64 133.66C168.72 139.09 172.05 144.28 175.05 149.79C175.45 149.82 176.08 149.3 176.28 149.64C175.1 153.93 182.92 154.99 184.15 151.63C184.68 149.25 182.65 148.64 182.45 147.49C184.87 146.98 186.86 146.04 189.39 145.64C187.38 150.78 194.49 151.98 195.72 148.41C195.88 146.66 195.23 145.72 194.64 144.72C194.99 144.15 195.96 144.19 195.87 143.18C194.71 142.39 194.58 140.58 193.71 139.5C187.54 139.77 182.28 142.24 176.43 143.34C174.99 140.16 172.77 137.77 171.5 134.43C178.32 132.31 185.6 130.65 192.63 128.74C193.18 124.41 192.94 118.44 192.94 113.68C192.94 112.1 193.42 110.09 192.32 109.08C191.05 109 189.14 109.58 188.78 110.92C178.23 113.83 167.32 116.38 157.92 120.45C155.32 118.94 153.02 117.14 150.37 115.68C144.77 118.1 138.4 119.74 133.4 122.75C133.13 123.13 132.12 122.3 132.16 123.21C131.97 124.28 132.74 125.71 133.24 126.59C139.69 125.33 144.18 122.12 150.52 120.75ZM191.09 110.61C191.24 110.61 191.4 110.61 191.55 110.61C191.55 116.4 191.55 122.19 191.55 127.97C187.77 128.76 183.9 129.46 180.29 130.43C176.6 131.26 172.83 132.02 169.96 133.66C171.15 137.8 173.3 140.98 175.2 144.41C181.75 144.6 186.93 141.37 192.94 141.03C193.05 141.64 193.13 142.28 193.4 142.72C187.63 144.51 181.52 145.95 176.13 148.1C173.26 142.3 169.45 137.44 166.25 131.97C161.37 127.31 156.32 122.81 150.37 119.22C146.82 119.53 144.56 121.11 141.88 122.29C140.4 122.71 139.08 123.29 137.56 123.67C136.24 123.78 134.7 125.63 133.71 124.59C133.17 123.57 134.76 123.7 135.25 123.21C135.98 122.92 136.78 122.69 137.41 122.29C141.55 120.27 146.37 118.92 150.83 117.22C156.46 120.83 161.71 124.82 166.56 129.2C167.1 130.15 167.67 131.07 168.72 131.51C176.02 129.1 184.36 127.72 190.93 124.59C191.08 120.4 190.69 116.74 190.47 112.92C190.33 111.91 191.55 112.25 191.24 111.07C191.16 110.95 191.08 110.82 191.09 110.61ZM188.78 112.76C188.88 112.76 188.98 112.76 189.08 112.76C189.08 113.07 189.08 113.38 189.08 113.68C187.07 114.75 184.36 115.13 181.99 115.84C174.54 117.58 168.32 120.56 161.16 122.6C160.43 122.31 159.73 121.97 159.31 121.37C168.46 117.82 179 115.67 188.78 112.76ZM189.39 117.68C181.36 120.49 172.13 122.1 164.25 125.05C163.31 124.71 162.52 124.21 162.09 123.36C171.11 120.62 179.63 117.38 189.08 115.07C189.32 115.8 189.37 116.73 189.39 117.68ZM188.93 118.75C189.03 118.75 189.14 118.75 189.24 118.75C189.9 118.86 189.38 120.15 189.55 120.75C182.43 123.34 174.61 125.23 167.49 127.82C166.43 127.44 165.28 126.34 165.02 125.67C172.68 123.06 181.47 121.57 188.93 118.75ZM189.55 123.67C183.12 126.08 175.61 127.41 169.34 129.97C168.82 129.72 168.07 128.88 168.11 128.59C175.17 126.4 182.53 124.52 189.24 121.98C189.89 122 189.39 123.16 189.55 123.67ZM192.48 145.34C193.47 145.73 193.86 146.73 194.02 147.95C193.01 149.46 189.86 149.07 190.32 146.57C190.69 145.81 191.4 145.39 192.48 145.34ZM191.55 147.18C191.76 147.33 191.86 147.59 192.02 147.79C192.83 147.89 193.32 147.66 193.4 147.03C193.42 146.35 193.08 146.02 192.48 145.95C191.89 146.08 191.59 146.5 191.55 147.18ZM182.45 151.17C181.68 152.4 178.7 152.04 177.82 151.17C177.89 148.67 182.54 148.12 182.45 151.17ZM179.52 150.71C179.78 150.97 179.92 151.34 180.45 151.33C180.85 151.11 181.18 150.83 181.06 150.1C180.51 149.57 179.52 149.85 179.52 150.71Z" />
		<path id="Shape 4" class="shp2" d="M137.96 238.07C134 245.52 137.23 256.81 146.53 256.08C149.43 260.67 152.93 264.66 155.1 269.98C152.99 270.06 151.8 268.42 149.79 269.57C148.9 271.81 149.61 275.67 149.38 278.58C151.75 280.84 155.53 281.69 160.41 281.44C163.01 284.83 163.74 290.1 166.94 292.89C171.53 293 174.35 291.33 175.51 287.99C174.89 284.39 172.3 282.75 171.43 279.39C177.91 276.48 183 268.7 181.63 259.76C180.76 254.05 175.49 249.62 173.06 245.85C168.87 242.57 158.67 243.53 152.65 243.39C153.22 238.1 160.37 239.4 162.45 235.62C160.94 231.27 158.82 227.53 155.1 225.39C150.21 225 146.21 229.02 142.85 231.53C141.35 230.58 140.9 228.58 138.37 228.67C137.01 229.9 135.76 231.24 135.51 233.58C135.5 235.9 138.04 235.68 137.96 238.07ZM159.18 257.3C162.62 257.03 164.11 260.29 162.86 263.44C161 262.02 160.11 259.64 159.18 257.3ZM158.37 234.39C154.02 236.86 148.3 237.94 148.57 245.03C148.87 246.23 149.81 246.79 150.61 247.48C157.41 247.9 166.21 246.3 170.61 249.12C173.34 252.25 175.67 255.78 177.55 259.76C178.55 270.31 173.21 274.5 168.16 278.98C168.12 282.75 171.29 285.33 171.02 287.99C170.48 288.4 169.52 288.38 168.98 288.8C165.99 285.93 165.6 280.47 162.45 277.76C158.42 277.29 152.18 279.04 153.06 273.67C155.93 273.54 159.69 274.31 160.41 272.03C158.05 263.76 152.54 258.64 148.16 252.39C139.29 253.95 137.1 242.79 141.63 238.07C141.55 235.22 137.45 234.92 138.37 232.35C140.45 231.23 141.25 234.53 143.27 234.8C146.63 232.72 148.44 229.09 153.06 228.26C155.54 229.59 156.65 232.3 158.37 234.39ZM154.69 254.44C156.95 258.86 158.6 263.88 162.04 267.12C171.25 263.67 163.61 248.5 154.69 254.44Z" />
		<path id="Shape 3" class="shp3" d="M28.35 152.85C29.87 154.7 25.73 157.58 24.22 158.9C24.57 159.95 25.65 161.14 26.4 161.68C31.89 159.6 36.42 154.57 31.51 149.81C34.17 147.55 37.59 145.44 40.64 143.25C40.52 142.61 39.27 141.18 38.93 140.47C39.16 140.27 38.61 140.26 38.49 140.29C32.52 144.17 25.53 148.61 20.41 152.97C20.57 153.97 21.69 154.79 22.41 155.72C24.22 155.21 26.98 151.18 28.35 152.85ZM72.53 223.01C75.42 220.83 78.34 218.55 81.51 216.7C82.01 216.28 82.78 216.39 83 215.87C82.65 214.61 81.03 213.66 80.68 212.4C80.3 212.24 79.76 212.9 79.41 212.62C79.83 209.79 76.63 207.05 74.4 207.02C70.38 207.05 64.53 210.58 64.03 214.55C63.71 216.56 65.51 219.25 67.41 220.3C63.65 223.89 58.9 224.65 55.56 223.02C54.67 221.88 54.34 220.84 54.03 219.81C54.37 218.37 55.79 216.96 57.33 216.04C57.18 214.72 55.57 213.42 54.71 212.61C50.64 213.7 47.51 217.85 47.4 220.94C48.88 225.41 52.84 227.9 55.85 228.63C61.01 229.88 67 227.16 72.53 223.01ZM73.93 213.13C73.47 214.22 71.85 215.01 70.92 214.51C69.75 212.73 73.43 210.74 73.93 213.13ZM66.05 202.07C66.18 204.92 62.06 206.92 60.07 209.35C60.44 210.43 61.56 211.63 62.36 212.06C66.66 209.24 72.61 205.21 72.5 200.91C70.88 197.56 68.55 197.74 66.19 198.06C67.07 197.32 67.74 196.54 68.25 195.74C67.46 194.51 66.27 194.43 65.64 193.72C61.65 196.72 57.96 199.78 54.48 202.88C55.13 204.16 56.43 205.95 57.5 206.68C60.59 205.68 63.19 200.53 66.05 202.07ZM63.46 188.11C62.6 188.15 61.13 189.31 60.45 189.96C61.05 190.96 61.67 192.36 61.83 192.96C62.78 192.63 63.71 191.53 64.88 190.93C65.2 190.12 64.16 188.86 63.46 188.11ZM55.76 178.97C55.11 178 54.43 177.12 53.73 176.41C49.21 179.38 44.63 182.16 40.1 185.17C38.72 186.1 36.88 186.82 36.55 188.32C37.4 189.27 38.17 190.62 39.09 191.18C40.9 190.56 42.4 188.58 44.17 187.95C46.66 193.98 53.41 193.86 56.64 188.74C56.9 186.06 56.68 183.29 54.49 180.13C55.05 179.77 55.66 179.42 55.76 178.97ZM46.83 169.4C47.37 168.84 48.43 168.4 47.84 167.62C46.83 166.72 45.89 165.45 44.76 165.13C39.58 169.46 33.9 174.51 28.13 179.04C28.68 180.55 30.45 181.97 31.72 182.76C33.61 180.88 36.49 179.19 38.64 177.36C40.5 179.85 42.61 181.09 45.03 180.79C47.72 179.85 49.76 177.41 50.25 175.43C50.67 173.37 48.67 170.8 46.83 169.4ZM44.22 174.9C43.39 175.27 42.75 174.72 42.19 173.74C42.66 173.18 43.21 172.63 43.93 172.11C45.14 172.74 45.11 174.13 44.22 174.9ZM30.69 167.61C32.16 168.53 33.79 169.57 35.55 169.23C40.42 168.29 43.57 162.76 41.05 159.13C41 159.07 40.95 159.02 40.87 159.1C39.63 157.77 38.17 157.49 36.7 157.33C31.74 158.26 26.82 162.97 30.69 167.61ZM36.78 163.08C36.62 163.93 35.06 164.82 34.31 164.56C32.55 162.71 35.86 160.83 36.78 163.08ZM25.19 143.2C26.17 142.87 26.75 144.5 27.58 144.9C28.11 144.54 29.3 143.65 29.76 142.98C27.93 139.51 25.1 137 21.88 138.97C20.64 140.89 22.28 143.37 20.55 145.19C20.16 145.23 19.76 145.35 19.46 144.98C18.78 144.03 19.53 143.36 19.2 142.48C18.33 141.68 17.37 141.29 16.34 141.26C10.01 146.25 20.76 153.8 24.57 147.22C24.74 145.87 24.3 144.4 25.19 143.2ZM49.76 197.71C50.54 198.71 51.33 199.62 52.16 200.35C55.49 198.19 58.48 195.97 61.04 193.65C60.25 192.41 59.46 191.13 58.46 190.98C55.67 192.92 51.83 195.33 49.76 197.71ZM39.55 143.04C36.84 144.96 32.65 147.37 30.13 149.63C30.89 150.51 32.17 151.64 32.71 153.25C32.81 155.99 30.33 158.72 26.66 160.41C26.36 159.87 25.96 159.8 25.68 159.19C28.44 157.04 30.94 154.84 29.04 151.77C27.29 150.35 24.66 152.59 22.8 154.2C22.44 154 22.14 153.43 21.79 153.15C26.98 149.07 33.02 145.16 38.42 141.12C39 141.8 39.04 142.37 39.55 143.04ZM81.73 215.62C72.63 221.13 63.08 230 55.45 227.33C53.75 226.56 52.11 225.51 50.52 224.19C49.62 223.17 49.21 222.08 48.63 220.9C48.92 218.26 50.79 215.94 54.17 213.91C54.78 214.17 55.31 214.82 55.8 215.65C54.04 216.77 53.35 218.11 52.87 219.48C52.94 220.82 53.64 222.76 54.98 224.04C58.47 225.9 62.51 225.02 66.87 222.54C67.84 221.64 69.02 220.77 68.68 219.61C64.67 217.49 64.48 213.51 67.51 210.82C70.11 208.52 74.72 207.46 76.9 209.11C77.43 209.91 77.97 210.7 78.5 211.5C78.77 212.4 78.39 213.17 78.29 213.99C78.84 214.38 79.64 213.49 80.32 213.27C80.5 213.99 81.27 214.84 81.73 215.62ZM75.17 213.09C74.69 208.89 67.88 212.42 70.38 215.34C71.73 216.49 74.86 214.89 75.17 213.09ZM71.71 201.12C71.29 204.9 66.68 207.84 62.51 210.86C62.14 210.51 61.78 210.09 61.45 209.53C63.56 207.44 68.86 204.12 67.03 201.42C64.96 198.38 60.54 203.81 57.71 205.59C57.04 204.57 56.27 204.02 55.61 202.91C59.37 200.15 62.52 197.27 65.61 194.37C66.1 195.04 66.7 195.17 67.2 195.81C66.44 196.85 64.85 197.73 64.7 198.89C67.12 199.24 69.98 197.33 71.71 201.12ZM63.06 188.69C63.42 189.24 63.79 189.78 64.15 190.32C63.52 190.73 62.88 191.13 62.48 191.59C62.02 191.38 61.69 190.53 61.29 190.03C61.94 189.6 62.65 189.18 63.06 188.69ZM54.75 178.86C54.34 179.19 53.64 179.46 53.51 179.84C55.27 182.98 56.24 185.96 55.45 188.59C53.96 190.62 50.98 191.85 49.14 191.38C47.57 190.7 45.71 188.68 45 186.62C43.39 186.77 40.91 188.93 39.42 190.02C38.82 189.39 38.21 188.82 37.68 187.89C43 184.34 48.33 180.79 53.66 177.24C54.02 177.78 54.38 178.32 54.75 178.86ZM51.78 182.41C50.74 182.62 49.27 184.1 47.9 184.84C48.01 185.78 48.78 187.23 49.71 187.55C52.47 187.64 54.61 184.51 51.78 182.41ZM46.65 167.48C46.72 167.59 46.79 167.7 46.86 167.81C47 168.4 45.93 168.75 45.81 169.29C46.89 170.82 48.11 171.63 49.12 173.52C50.29 176.94 44.39 181.33 41.58 178.7C40.81 177.51 40.03 176.39 39.11 175.95C36.86 177.46 34.24 179.68 31.43 181.39C30.67 180.78 29.95 179.97 29.14 179.62C33.84 174.94 40.41 170.63 44.62 165.85C45.36 166.05 45.94 167.09 46.65 167.48ZM44.04 171.1C43.05 171.94 42.03 172.77 41.36 173.67C41.83 175.22 43.17 176.14 44.3 175.95C46.7 174.82 46.2 171.71 44.04 171.1ZM28.96 142.72C29.13 143.17 28.36 143.42 28.09 143.77C27.14 142.56 26.1 141.76 24.86 142.01C22.6 143.38 23.78 145.43 23.27 147.14C20.04 151.16 12.83 146.03 16.85 142.49C18.63 142.74 17.51 144.27 18.48 145.63C19.11 146.41 19.91 146.33 20.69 146.35C23.86 144.6 21.52 141.75 22.79 139.62C25.26 138.6 27.09 140.73 28.96 142.72ZM39.93 160.04C40.01 159.95 40.06 160.01 40.11 160.07C41.77 163.37 39.49 166.38 35.51 168C34.06 168.04 32.7 167.59 31.45 166.63C27.8 162.25 34.36 157.3 38.19 158.84C38.76 159.29 39.41 159.34 39.93 160.04ZM33.52 165.25C35.25 166.78 39.57 163.45 37.18 161.56C35.41 159.67 31.11 162.9 33.52 165.25ZM59.91 193.62C57.7 195.53 55.03 197.35 52.48 199.19C52.01 198.6 51.15 197.82 50.96 197.39C53.69 195.55 55.94 193.61 58.31 191.7C58.89 192.12 59.41 192.79 59.91 193.62ZM52.11 185.49C51.34 186.03 50.58 186.54 49.89 186.65C49.51 186.35 48.85 185.52 48.8 185.02C49.65 184.54 50.59 183.64 51.38 183.46C51.94 184.2 52.18 184.87 52.11 185.49ZM0.61 180.34C0 181.68 0.69 184.45 2.58 185.14C4.09 184.66 6.34 182.93 7.58 182.28C7.72 181.34 7.17 180.26 7.5 179.35C8.61 176.82 11.21 175.27 14.35 173.38C18.56 170.83 23.39 167.83 26.38 166.45C26.03 164.69 23.95 163.98 22.86 162.84C20.72 162.69 18.39 163.51 16.33 162.96C15.58 164.31 15.47 165.8 14.92 167.19C9.71 171.48 3.45 175.57 0.61 180.34ZM37.91 193.75C38.87 192.95 40.2 192.1 40.99 191.54C41.04 190.43 39.46 189.54 39.42 188.5C38.3 188.77 37.08 189.56 35.83 190.42C34.72 189.22 33.43 188.94 32.17 188.48C31.06 189.16 30.26 189.91 29.56 190.68C29.83 191.6 31.32 192.44 31.52 193.61C25.47 197.41 14.65 202.21 18.88 208.78C21.09 210.21 23.95 210.73 26.68 207.98C26.75 207.1 26.28 205.65 25.41 204.9C24.63 204.56 23.6 205.48 22.83 205.05C22.87 204.51 23.26 204.08 23.67 203.71C26.3 201.33 31.09 199.04 33.92 197.19C34.47 197.89 35.02 198.62 35.63 199.03C36.65 198.99 38.24 197.92 39.11 197.18C38.97 196.09 37.47 194.73 37.91 193.75ZM21.21 178.22C21.98 177.4 22.32 176.49 22.22 175.5C21.29 173.06 18.84 173.98 17.98 175.51C17.48 177.19 19.55 179.34 21.21 178.22ZM13.68 191.39C13.51 190.63 14.63 190.14 14.73 189.43C13.96 188.39 13.19 187.39 12.26 187.16C10.25 188.77 9.24 190.57 9.47 192.62C9.64 193.87 11.04 195.33 11.91 196.02C14.54 197.62 19.32 197.36 21.22 193.73C21.79 192.66 21.65 191.51 22.09 190.33C22.07 189.23 21.57 188.03 22.63 187.15C23.82 186.7 24.67 187.95 25.64 188.59C27.04 188.54 27.73 186.95 28.43 185.95C25.98 182.23 20.28 180.04 17.37 184.69C16.88 186.85 18.8 189.49 17.52 191.49C15.99 192.7 14.64 193.03 13.68 191.39ZM5.45 190.13C9.31 187.63 13.73 183.63 18.09 180.6C17.85 179.6 17.52 178.24 16.57 177.39C12.15 179.47 7.28 183.62 3.67 186.77C3.96 187.78 4.54 189.31 5.45 190.13ZM24.89 165.88C24.94 165.95 24.99 166.02 25.04 166.1C18.38 170.65 6.36 174.53 6.02 181.6C4.95 182.21 3.8 183.27 2.79 183.59C2.24 183.24 1.92 182.43 1.63 181.85C2.12 179.07 4.83 176.7 7.53 174.47C10.31 172.18 13.24 169.75 15.79 167.55C16.56 166.51 16.21 165.25 16.84 164.19C19.63 164.21 22.66 163.04 24.89 165.88ZM39.83 191.22C36.95 192.41 35.57 194.27 37.69 196.72C37.12 196.91 36.47 197.48 35.92 197.58C35.38 196.98 34.87 196.22 34.32 195.67C30.48 197.19 25.6 200.6 22.14 203.31C21.65 204.09 21.07 204.86 21.64 205.85C22.5 207.18 23.86 206.04 24.9 206.49C25.9 207.71 23.84 207.98 23.09 208.49C21.92 208.17 20.54 208.48 19.72 207.44C18.24 205.58 20.13 202.29 22.21 200.6C25.57 197.88 30.31 195.55 32.94 194.08C32.87 192.94 31.37 191.83 30.69 190.72C32.5 188.62 34.13 190.1 35.55 191.4C36.53 191.18 37.77 189.73 38.7 189.77C39.12 190.03 39.46 190.69 39.83 191.22ZM20.34 177.38C19.34 177.52 18.37 175.94 19.17 175.18C20.59 174.49 21.78 176.5 20.34 177.38ZM26.33 187.51C25.14 186.55 23.96 185.51 22.52 185.81C22.09 186.16 21.33 186.45 21.18 186.86C20.16 189.29 21.55 192.2 19.3 194.38C16.51 196.72 14.38 195.74 12.23 194.86C11.6 194.07 10.62 193.35 10.56 192.37C10.39 190.92 11.25 189.68 12.37 188.5C12.71 188.53 12.9 189.3 13.24 189.33C13.07 190.2 12.26 190.95 12.63 191.93C14.07 194.11 16.37 194.11 18.32 192.21C20.08 189.99 17.78 186.97 18.53 184.55C21.88 181.32 24.88 183.89 27.53 185.77C27.81 186.48 26.44 186.87 26.33 187.51ZM17.11 180.32C13.02 183.01 9.84 185.9 5.84 188.61C5.53 188.05 5.31 187.5 5.04 186.95C8.98 184.09 12.52 181.16 16.2 178.26C16.74 178.99 16.99 179.67 17.11 180.32Z" />
	</g>
</svg>